<svg xmlns="http://www.w3.org/2000/svg" xmlns:xlink="http://www.w3.org/1999/xlink" width="18px" height="18px" viewBox="0 0 18 18" version="1.1">
<g>
<path fill="#000" fill-rul="evenodd" style=" stroke:none;fill-rule:nonzero;fill:rgb(39,65,79);fill-opacity:1;" d="M 16.117188 2.261719 C 14.082031 0.550781 10.945312 0.808594 9 2.789062 C 7.054688 0.808594 3.917969 0.546875 1.882812 2.261719 C -0.757812 4.484375 -0.371094 8.113281 1.511719 10.039062 L 7.679688 16.320312 C 8.03125 16.679688 8.5 16.878906 9 16.878906 C 9.503906 16.878906 9.96875 16.679688 10.320312 16.324219 L 16.488281 10.039062 C 18.367188 8.117188 18.761719 4.488281 16.117188 2.261719 Z M 15.285156 8.851562 L 9.121094 15.132812 C 9.035156 15.21875 8.964844 15.21875 8.878906 15.132812 L 2.714844 8.851562 C 1.429688 7.542969 1.171875 5.070312 2.96875 3.554688 C 4.339844 2.40625 6.449219 2.578125 7.769531 3.921875 L 9 5.179688 L 10.230469 3.921875 C 11.558594 2.570312 13.667969 2.40625 15.03125 3.550781 C 16.824219 5.066406 16.558594 7.554688 15.285156 8.851562 Z M 15.285156 8.851562 "/>
</g>
</svg>
