<?xml version="1.0" encoding="UTF-8"?>
<svg xmlns="http://www.w3.org/2000/svg" xmlns:xlink="http://www.w3.org/1999/xlink" width="13px" height="13px" viewBox="0 0 13 13" version="1.1">
<g id="surface1">
<path style=" stroke:none;fill-rule:evenodd;fill:rgb(100%,100%,100%);fill-opacity:1;" d="M 11.09375 8.40625 C 10.402344 7.707031 9.554688 7.175781 8.625 6.851562 C 9.984375 5.917969 10.574219 4.210938 10.089844 2.640625 C 9.601562 1.066406 8.144531 -0.00390625 6.5 -0.00390625 C 4.855469 -0.00390625 3.398438 1.066406 2.910156 2.640625 C 2.425781 4.210938 3.015625 5.917969 4.375 6.851562 C 1.757812 7.765625 0.00390625 10.230469 0 13 L 1.015625 13 C 1.015625 9.96875 3.46875 7.515625 6.5 7.515625 C 9.53125 7.515625 11.984375 9.96875 11.984375 13 L 13 13 C 13.003906 11.273438 12.320312 9.621094 11.09375 8.40625 Z M 3.757812 3.757812 C 3.757812 2.242188 4.984375 1.015625 6.5 1.015625 C 8.015625 1.015625 9.242188 2.242188 9.242188 3.757812 C 9.242188 5.273438 8.015625 6.5 6.5 6.5 C 4.984375 6.5 3.757812 5.273438 3.757812 3.757812 Z M 3.757812 3.757812 "/>
</g>
</svg>
